<?xml version="1.0" encoding="UTF-8" standalone="no"?>
<!-- Created with Inkscape (http://www.inkscape.org/) -->

<svg
   xmlns:dc="http://purl.org/dc/elements/1.1/"
   xmlns:cc="http://creativecommons.org/ns#"
   xmlns:rdf="http://www.w3.org/1999/02/22-rdf-syntax-ns#"
   xmlns:svg="http://www.w3.org/2000/svg"
   xmlns="http://www.w3.org/2000/svg"
   xmlns:sodipodi="http://sodipodi.sourceforge.net/DTD/sodipodi-0.dtd"
   xmlns:inkscape="http://www.inkscape.org/namespaces/inkscape"
   width="160"
   height="160"
   id="svg4275"
   version="1.1"
   inkscape:version="0.92.3 (2405546, 2018-03-11)"
   sodipodi:docname="max-mate-icon.svg">
  <defs
     id="defs4277" />
  <sodipodi:namedview
     id="base"
     pagecolor="#ffffff"
     bordercolor="#666666"
     borderopacity="1.0"
     inkscape:pageopacity="0.0"
     inkscape:pageshadow="2"
     inkscape:zoom="1.4142136"
     inkscape:cx="-100.72853"
     inkscape:cy="-49.36981"
     inkscape:document-units="px"
     inkscape:current-layer="layer1"
     showgrid="false"
     inkscape:window-width="1920"
     inkscape:window-height="1058"
     inkscape:window-x="1366"
     inkscape:window-y="0"
     inkscape:window-maximized="1"
     inkscape:snap-global="true"
     inkscape:snap-bbox="true"
     inkscape:bbox-nodes="true"
     inkscape:object-paths="true"
     inkscape:snap-intersection-paths="true"
     inkscape:snap-smooth-nodes="true"
     inkscape:snap-bbox-edge-midpoints="true"
     inkscape:snap-bbox-midpoints="true"
     inkscape:bbox-paths="true">
    <inkscape:grid
       type="xygrid"
       id="grid4292"
       empspacing="4"
       visible="true"
       enabled="true"
       snapvisiblegridlinesonly="true" />
  </sodipodi:namedview>
  <metadata
     id="metadata4280">
    <rdf:RDF>
      <cc:Work
         rdf:about="">
        <dc:format>image/svg+xml</dc:format>
        <dc:type
           rdf:resource="http://purl.org/dc/dcmitype/StillImage" />
        <dc:title />
      </cc:Work>
    </rdf:RDF>
  </metadata>
  <g
     inkscape:label="Layer 1"
     inkscape:groupmode="layer"
     id="layer1"
     transform="translate(0,-892.36218)">
    <g
       id="g93"
       transform="matrix(0.74181205,0,0,0.74181205,196.98838,277.02471)">
      <path
         style="fill:#b3b8c4;stroke-width:1.33333337"
         d="m -83.653093,1035.9791 c -12.466667,-2.4455 -25.066667,-4.4733 -27.999997,-4.5063 -2.93334,-0.033 -10.13334,1.4776 -16,3.3569 -28.37005,9.0876 -62.38292,4.1593 -87.08979,-12.6188 -30.68484,-20.8377 -47.18496,-54.0018 -45.17969,-90.80804 3.21824,-59.06979 53.98105,-101.92043 113.58285,-95.87921 34.397,3.48647 65.848307,26.03879 80.884427,57.99861 6.842413,14.54379 9.376,26.21457 9.376,43.1899 0,13.2876 -1.041867,19.70663 -6.275947,38.66666 -1.9614,7.10502 -1.8714,8.16783 2.89048,34.13628 2.7032,14.7416 4.535507,27.7916 4.0718,29 -1.06924,2.7864 -1.17816,2.7766 -28.260133,-2.536 z m -45.646517,-5.1578 c 14.8552,-4.3757 18.00186,-4.3257 45.983543,0.7309 12.70172,2.2953 23.31996,3.9453 23.59608,3.6667 0.276107,-0.2787 -1.5238,-11.3067 -3.999813,-24.5067 -2.476013,-13.20004 -4.52392,-25.93742 -4.550907,-28.30531 -0.02693,-2.36789 1.549067,-8.96789 3.50232,-14.66667 2.838147,-8.28052 3.672254,-13.59525 4.15328,-26.46389 0.733734,-19.62939 -2.040893,-32.64544 -10.636653,-49.8975 -7.999773,-16.05591 -25.021533,-33.07531 -41.068,-41.0623 -50.27029,-25.02159 -109.75093,-5.8126 -133.34244,43.0623 -7.8203,16.20143 -9.90012,25.432 -9.91403,44 -0.01,12.99267 0.5691,17.87957 3.07962,25.99999 11.54264,37.33538 41.01334,63.87228 78.52803,70.71068 11.12898,2.0287 31.82769,0.5142 44.66897,-3.2682 z m -40.97911,-6.1981 c -35.63496,-5.4691 -65.23457,-32.39436 -73.31981,-66.69531 -2.58969,-10.98653 -2.57912,-30.15617 0.0227,-41.19551 6.13858,-26.04539 25.0287,-48.60599 50.12761,-59.86774 12.5715,-5.64076 21.56225,-7.40728 37.12845,-7.29509 24.25257,0.17479 42.6148,8.17247 60.87084,26.51231 8.59604,8.6355 11.99712,13.26194 16.25312,22.10885 10.375227,21.56698 11.94928,42.84271 4.9476,66.87493 -4.182907,14.35724 -4.237027,18.65914 -0.494507,39.31156 2.09784,11.5765 2.54512,16.7461 1.536174,17.7551 -1.008934,1.0089 -5.6486,0.6218 -15.93496,-1.3297 -18.963507,-3.5975 -28.576907,-3.4987 -42.158117,0.4337 -13.06106,3.7818 -27.96715,5.077 -38.97911,3.3869 z m -10.04104,-33.32307 c 0,-2.54079 -0.53442,-3.74839 -1.41735,-3.20272 -0.77954,0.48179 -2.56263,-0.16048 -3.96241,-1.42727 -2.44159,-2.20961 -2.43691,-2.07941 0.11514,3.20272 3.14959,6.51891 5.26462,7.09231 5.26462,1.42727 z m 19.46621,-4.75033 c -1.16784,-1.01595 -1.5255,-1.12503 -0.79478,-0.2424 0.73071,0.88261 1.39817,2.83476 1.48324,4.33809 0.13943,2.46408 0.21772,2.48796 0.79478,0.2424 0.35206,-1.37001 -0.31539,-3.32215 -1.48324,-4.33809 z m 49.86712,-2.42562 c 0,-1.05672 -0.6,-2.29213 -1.33333,-2.74536 -0.73333,-0.45322 -1.33333,0.41136 -1.33333,1.92131 0,1.50995 0.6,2.74536 1.33333,2.74536 0.73333,0 1.33333,-0.86459 1.33333,-1.92131 z m -55.54689,-1.77501 c -1.58412,-1.26703 -3.16452,-3.50368 -3.512,-4.97035 -0.5829,-2.4604 -0.64373,-2.44045 -0.78644,0.25774 -0.0868,1.64056 1.14627,3.8356 2.80867,5 3.99634,2.79913 5.08596,2.58894 1.48977,-0.28739 z m 42.43816,-4.61241 c -0.98943,-0.98943 -1.16295,-0.46886 -0.58299,1.74894 0.47148,1.80294 1.07587,2.40734 1.40874,1.40874 0.32064,-0.96192 -0.0509,-2.38288 -0.82575,-3.15768 z m -67.73031,-1.35794 c -1.04286,-2.01666 -2.4807,-3.66666 -3.1952,-3.66666 -0.7145,0 -1.29909,1.65 -1.29909,3.66666 0,2.97995 0.59842,3.66667 3.1952,3.66667 3.05645,0 3.11286,-0.15923 1.29909,-3.66667 z m 21.59694,-20.66666 c 2.32906,-10.56008 2.04813,-10.3004 11.60314,-10.7258 9.81696,-0.43706 10.51295,0.0992 12.19055,9.39246 0.83445,4.6226 3.59287,6.669 5.28935,3.92404 0.36574,-0.59178 -1.92949,-12.74178 -5.1005,-27 -3.17102,-14.25822 -6.18252,-27.87403 -6.69223,-30.25737 -0.78709,-3.68029 -1.50976,-4.33333 -4.79541,-4.33333 -2.91192,0 -4.04488,0.74191 -4.58123,3 -2.84442,11.97535 -12.67157,57.17905 -12.67157,58.28771 0,3.05463 4.00426,1.12929 4.7579,-2.28771 z m 6.70972,-19.4036 c -2.26974,-1.65968 -2.27303,-2.25238 -0.0738,-13.32605 1.26587,-6.37401 3.04114,-12.60053 3.94505,-13.83669 1.52377,-2.08389 1.7428,-2.06014 3.0074,0.32604 0.75017,1.4155 2.39158,7.63603 3.64759,13.82341 2.18431,10.76039 2.17953,11.3259 -0.10993,13 -3.05089,2.23086 -7.37604,2.23638 -10.41629,0.0133 z"
         id="path107"
         inkscape:connector-curvature="0" />
      <path
         style="fill:#9a9fac;stroke-width:1.33333337"
         d="m -58.31976,1036.7122 c 0.453227,-0.7334 1.08864,-1.3334 1.412027,-1.3334 0.323386,0 0.587973,0.6 0.587973,1.3334 0,0.7333 -0.635413,1.3333 -1.412027,1.3333 -0.776613,0 -1.0412,-0.6 -0.587973,-1.3333 z m -109.33333,-12.7455 c -1.46667,-0.3378 -5.96667,-1.2594 -10,-2.048 -4.03334,-0.7886 -12.43334,-3.8645 -18.66667,-6.8353 -9.25423,-4.4106 -13.43595,-7.5084 -22.7948,-16.88636 -17.70466,-17.74083 -25.55012,-36.41576 -25.55012,-60.81821 0,-33.26158 18.11484,-62.77099 47.67825,-77.66877 24.83874,-12.51689 52.02614,-12.54753 77.9251,-0.0878 14.55212,7.00086 30.300623,22.28186 37.811743,36.68927 10.088334,19.35091 12.926987,42.8827 7.5274,62.40065 -6.10892,22.082 -6.088626,21.75414 -2.64224,42.67272 1.749094,10.6166 2.801347,19.6817 2.33832,20.1447 -0.463013,0.463 -7.674426,-0.4315 -16.025373,-1.9878 -19.67903,-3.6674 -27.33791,-3.5671 -41.03331,0.5377 -10.67897,3.2007 -30.43169,5.3004 -36.5683,3.8872 z m -11.61476,-39.69548 c 0.24507,-7.35313 -0.1188,-11.55906 -1,-11.55906 -0.7734,0 -1.38524,2.94456 -1.38524,6.66666 0,8.65924 -2.21292,8.65882 -7.07692,-10e-4 -2.48559,-4.42553 -4.61383,-6.66533 -6.33333,-6.66533 -2.361,0 -2.58975,1.00109 -2.58975,11.33333 0,12.15877 2.26123,15.74639 2.93032,4.64917 0.22165,-3.67629 0.9638,-6.82629 1.6492,-7 0.68541,-0.17372 3.28221,3.16856 5.77068,7.42727 2.48847,4.25871 5.22768,7.51029 6.08714,7.22573 0.99304,-0.32878 1.70308,-4.73086 1.9479,-12.07644 z m 19.51952,10.3457 c 1.15238,-1.15238 2.09524,-3.229 2.09524,-4.61472 0,-2.81252 -4.47012,-7.50303 -8.31278,-8.72264 -4.00447,-1.27098 -2.51506,-6.47224 2.00205,-6.99148 2.0291,-0.23324 3.34369,-0.98324 2.92131,-1.66667 -1.21786,-1.97053 -6.8851,-1.44427 -9.18201,0.85265 -3.48714,3.48714 -2.45782,7.01264 3.18749,10.91743 2.9055,2.00971 5.3055,4.63053 5.33334,5.82408 0.0793,3.40249 -3.26593,5.3856 -7.35407,4.35955 -2.59011,-0.65008 -3.38377,-0.47202 -2.71551,0.60925 1.38873,2.24701 9.59786,1.85963 12.02494,-0.56745 z m 35.70929,-1.92034 c 1.48244,-1.83073 2.38595,-5.16265 2.38595,-8.7988 0,-8.14585 -3.2611,-11.18562 -12,-11.18562 h -6.66667 v 11.1111 c 0,6.11112 0.45,11.56851 1,12.12752 2.03356,2.06695 12.83449,-0.23324 15.28072,-3.2542 z m -12.01405,1.08224 c -1.81988,-1.81988 -2.14203,-15.48045 -0.4288,-18.18332 1.71916,-2.71222 6.90996,-1.31086 9.86589,2.6635 3.74527,5.03562 2.27416,12.37326 -3.03068,15.1165 -4.65553,2.40747 -4.41727,2.39247 -6.40641,0.40332 z m 29.3199,1.42088 c -3.9406,-1.13569 -4.36912,-1.72428 -4,-5.49402 0.3167,-3.23423 1.19332,-4.40962 3.74676,-5.02367 l 3.33334,-0.80161 -3.75075,-0.96396 c -3.1112,-0.79959 -3.67956,-1.58015 -3.33333,-4.57779 0.32134,-2.78207 1.33805,-3.81995 4.41741,-4.50932 3.21332,-0.71939 2.81997,-0.85175 -2,-0.673 l -6,0.22249 -0.40455,8.62554 c -0.62325,13.28898 0.0452,14.73076 6.76328,14.58754 l 5.64127,-0.12026 -4.41343,-1.27195 z m -98.9199,-11.26532 c 0,-8.56038 -0.42001,-11.30566 -1.66667,-10.89374 -1.06081,0.35052 -1.81165,3.85681 -2.0655,9.64549 -0.42401,9.66876 0.13752,12.69269 2.35699,12.69269 0.83787,0 1.37518,-4.47153 1.37518,-11.44444 z m 57.33333,0 c 0,-8.56038 -0.42001,-11.30566 -1.66667,-10.89374 -1.0608,0.35052 -1.81165,3.85681 -2.0655,9.64549 -0.42401,9.66876 0.13753,12.69269 2.35699,12.69269 0.83787,0 1.37518,-4.47153 1.37518,-11.44444 z m -20.38153,-30.46259 c 1.88804,-7.63242 3.18159,-8.7188 10.38153,-8.7188 7.3139,0 9.08998,1.48346 10.6587,8.90258 1.04897,4.96103 1.9829,6.48023 4.1765,6.79375 1.55396,0.2221 3.11045,-0.3779 3.45885,-1.33334 0.34842,-0.95544 -2.43496,-15.53716 -6.18526,-32.40382 l -6.81874,-30.66667 -3.80746,-0.43757 c -2.0941,-0.24066 -4.32807,0.083 -4.96439,0.71937 -1.65901,1.65902 -14.69739,60.6614 -13.87727,62.7986 1.52198,3.9662 5.36887,0.84895 6.97754,-5.6541 z m 4.99282,-18.18257 c -0.92132,-1.49072 1.57064,-16.92513 3.62641,-22.46085 0.74437,-2.0044 1.66647,-2.74538 2.44617,-1.96567 1.72958,1.72957 5.71205,21.56121 4.80465,23.92585 -0.86613,2.25708 -9.54482,2.65655 -10.87723,0.50067 z"
         id="path105"
         inkscape:connector-curvature="0" />
      <path
         style="fill:#4d6496;stroke-width:1.33333337"
         d="m -179.48238,1020.7489 c -48.14536,-12.9761 -75.7999,-63.6045 -60.17194,-110.15941 11.66849,-34.75981 41.26953,-57.20985 77.68702,-58.91945 16.80718,-0.789 28.28974,1.6792 43.64754,9.38211 18.65892,9.35863 36.09276,29.72414 42.511333,49.66001 5.353494,16.62781 5.142094,38.23469 -0.535546,54.73705 -3.371667,9.79992 -3.391507,23.73304 -0.05787,40.59629 1.37724,6.9667 2.011493,13.1843 1.40944,13.8169 -0.609787,0.6408 -8.874587,-0.2086 -18.659467,-1.9177 -19.13329,-3.342 -22.47581,-3.1354 -43.33461,2.6788 -12.21186,3.404 -30.13518,3.4568 -42.49596,0.1254 z m 19.43981,-24.37008 c 1.16612,-0.91666 2.52261,-3.02101 3.01442,-4.67632 0.86977,-2.92738 -1.23126,-5.68893 -9.21034,-12.10586 -3.12004,-2.5092 -0.27116,-5.81694 4.07129,-4.72706 2.35281,0.59052 3.18077,0.24671 3.18077,-1.32081 0,-5.09628 -12.30939,-3.49656 -13.99648,1.81896 -1.09425,3.44769 2.23248,8.90161 6.66032,10.91908 1.75421,0.79927 3.48681,2.22808 3.85023,3.17513 0.99053,2.58128 -2.71734,4.98894 -6.29881,4.09006 -3.83356,-0.96218 -5.3847,0.2811 -3.37376,2.70414 1.86977,2.25294 9.29664,2.32823 12.10236,0.12267 z m 36.86898,-3.23417 c 2.66208,-3.03571 3.04754,-4.61413 2.50516,-10.25868 -0.86058,-8.95636 -4.26038,-11.77713 -13.54216,-11.23572 l -6.77584,0.39524 -0.38934,11.12923 c -0.4835,13.82037 0.55296,15.47293 9.0043,14.35684 4.26238,-0.56288 6.98195,-1.85999 9.19788,-4.38691 z m -12.25728,0.012 c -0.48889,-0.48893 -0.88889,-4.68893 -0.88889,-9.33339 0,-7.96968 0.17579,-8.44444 3.12668,-8.44444 4.24164,0 7.53999,3.98296 7.53999,9.10499 0,6.09984 -6.5452,11.90537 -9.77778,8.67279 z m 34.78526,2.55556 c 0.36792,-1.11881 -0.97554,-1.66667 -4.08706,-1.66667 -7.59717,0 -8.21281,-7.00818 -0.74682,-8.50138 4.55778,-0.91156 3.96042,-3.49862 -0.80784,-3.49862 -3.23783,0 -4.76954,-2.07358 -3.69336,-5 0.33709,-0.91666 1.8987,-1.67585 3.47025,-1.68708 1.57153,-0.0107 3.74053,-0.57896 4.81997,-1.26161 1.699163,-1.07456 1.67323,-1.35224 -0.1931,-2.06843 -1.18567,-0.45498 -4.46886,-0.63725 -7.29598,-0.40505 l -5.14021,0.42212 -0.38847,11.88724 c -0.28096,8.59761 0.088,12.1992 1.33334,13.01455 2.51184,1.64457 12.08786,0.71541 12.72928,-1.23512 z m -104.48347,-1.10905 c 1.22736,-3.19844 0.92822,-19.63876 -0.39536,-21.72844 -2.60279,-4.10935 -4.12865,0.29462 -4.12865,11.91613 0,9.30089 0.40826,11.92131 1.85734,11.92131 1.02155,0 2.22155,-0.94907 2.66667,-2.10906 z m 11.21571,-4.99518 c 0.22351,-3.42606 0.9634,-6.22916 1.6442,-6.22916 0.6808,0 2.77724,3.0379 4.65874,6.75087 2.74471,5.41641 4.00107,6.66833 6.3558,6.33333 2.77595,-0.39492 2.93487,-1.06733 2.93487,-12.41753 0,-9.77777 -0.37037,-12 -2,-12 -1.42101,0 -2.19564,1.92997 -2.67578,6.66667 l -0.67578,6.66666 -4.48285,-7.07194 c -3.43272,-5.4153 -5.14847,-6.97702 -7.32422,-6.66667 -2.58649,0.36892 -2.87665,1.35153 -3.23467,10.95409 -0.21631,5.80184 -0.066,11.40175 0.33404,12.44422 1.46595,3.8202 4.06861,0.65516 4.46565,-5.43059 z m 46.11762,4.99518 c 1.22736,-3.19844 0.92822,-19.63876 -0.39536,-21.72844 -2.60278,-4.10935 -4.12865,0.29462 -4.12865,11.91613 0,9.30089 0.40826,11.92131 1.85735,11.92131 1.02154,0 2.22154,-0.94907 2.66666,-2.10906 z m -20.50957,-39.55767 c 0.7978,-3.11667 1.71367,-6.44682 2.03526,-7.40035 0.41052,-1.2172 2.84215,-1.61442 8.16217,-1.33334 8.14234,0.4302 8.07593,0.36142 10.36357,10.73369 0.66147,2.99912 1.53231,3.66667 4.78329,3.66667 3.24342,0 3.96808,-0.5519 3.93918,-3 -0.075,-6.34797 -13.1713,-61.43235 -14.86013,-62.50301 -2.54059,-1.61064 -5.60332,-1.41918 -8.0465,0.50301 -2.14539,1.68789 -16.12903,61.93361 -14.8542,63.99633 0.34116,0.55201 2.06176,1.00367 3.82355,1.00367 2.6521,0 3.45283,-0.975 4.65381,-5.66667 z m 5.04307,-20.38693 c -1.17415,-1.17415 3.48914,-20.77452 4.94249,-20.77388 1.52134,6.6e-4 4.34743,10.68616 4.53867,17.16081 0.11956,4.04782 -0.16484,4.33334 -4.31645,4.33334 -2.44444,0 -4.76856,-0.32412 -5.16471,-0.72027 z"
         id="path103"
         inkscape:connector-curvature="0" />
      <path
         style="fill:#505a6f;stroke-width:1.33333337"
         d="m -171.30191,1022.09 c -71.07139,-12.9606 -96.97694,-99.52774 -44.24405,-147.84786 9.64141,-8.83459 19.63543,-14.56473 33.2262,-19.05044 13.96051,-4.60774 35.8251,-4.32321 50.95268,0.66307 26.00337,8.57112 47.208973,30.06379 55.440213,56.19072 4.42664,14.05073 4.042814,38.38395 -0.850266,53.90164 -4.292907,13.61436 -4.35444,17.22435 -0.639827,37.53337 1.596547,8.7288 2.598987,16.1743 2.227653,16.5457 -0.371333,0.3713 -7.193333,-0.5225 -15.159986,-1.9861 -19.063067,-3.5024 -27.162507,-3.362 -40.735497,0.7061 -12.39118,3.7138 -30.10961,5.187 -40.21712,3.3438 z m -33.01785,-38.24962 c 0,-9.0503 -0.41154,-11.36984 -2.13457,-12.03102 -3.2592,-1.25068 -4.48928,2.01842 -4.51168,11.99045 -0.0236,10.50065 1.75339,15.31321 4.73924,12.83517 1.37713,-1.14292 1.90701,-4.69802 1.90701,-12.7946 z m 10.66667,6.06246 c 0,-3.5882 0.50887,-6.52402 1.13083,-6.52402 0.62196,0 2.20507,2.38222 3.51801,5.29382 3.31405,7.34925 6.67885,10.25733 9.32615,8.06028 1.53285,-1.27216 2.02501,-4.55743 2.02501,-13.51735 0,-10.94785 -0.20026,-11.83675 -2.66667,-11.83675 -2.27161,0 -2.66667,0.8889 -2.66667,6 0,3.3 -0.45437,6 -1.00971,6 -0.55534,0 -2.66501,-2.74046 -4.68815,-6.08992 -2.85873,-4.73282 -4.34218,-5.9956 -6.65696,-5.66666 -2.77613,0.39449 -3.00507,1.18574 -3.36935,11.64513 -0.44143,12.67437 0.0754,15.07131 3.00703,13.94632 1.4585,-0.55968 2.05048,-2.67035 2.05048,-7.31085 z m 34.66666,5.47598 c 4.69885,-4.69885 2.96646,-9.98634 -4.76686,-14.54912 -3.76723,-2.22272 -4.50952,-3.24626 -3.35932,-4.63217 0.85411,-1.02913 2.93381,-1.50043 4.9339,-1.11808 2.8366,0.54225 3.37182,0.20948 2.98061,-1.85317 -0.65897,-3.47443 -8.47926,-4.17546 -11.91305,-1.06792 -4.8501,4.38928 -3.34523,8.6338 5.34707,15.08153 4.85527,3.60151 2.94601,7.20816 -3.20494,6.05423 -3.60045,-0.67546 -4.68407,-0.43314 -4.68407,1.04742 0,2.97623 1.35346,3.70395 6.88889,3.70395 3.33333,0 6.03864,-0.92753 7.77777,-2.66667 z m 12,-11.53844 c 0,-9.0503 -0.41153,-11.36984 -2.13456,-12.03102 -3.62213,-1.38995 -4.71859,2.39744 -3.89141,13.44166 0.89483,11.9476 1.48623,13.56894 4.14468,11.36262 1.34657,-1.11755 1.88129,-4.74812 1.88129,-12.77326 z m 23.58822,9.63532 c 4.01092,-4.66297 4.20838,-13.6341 0.40649,-18.46742 -3.12812,-3.97676 -11.6544,-5.95232 -15.89489,-3.68288 -2.47794,1.32616 -2.76648,2.7041 -2.76648,13.21145 0,6.45197 0.45,12.18879 1,12.74848 0.55,0.55968 3.96469,0.73673 7.58821,0.39345 5.03385,-0.4769 7.31451,-1.46853 9.66667,-4.20308 z m -11.33552,-0.60737 c -1.18536,-0.7326 -1.6035,-3.55484 -1.3255,-8.94652 0.38002,-7.36981 0.6172,-7.87632 3.68835,-7.87632 4.53192,0 7.77647,5.80969 6.00709,10.75637 -1.5569,4.3527 -5.96884,7.55043 -8.36994,6.06647 z m 33.80213,3.75512 c 1.2522,-2.02609 -0.2626,-3.11265 -4.43801,-3.18337 -2.93592,-0.0497 -3.69624,-0.75154 -4.03871,-3.72792 -0.36099,-3.13728 0.0608,-3.66667 2.92131,-3.66667 3.28494,0 5.83228,-2.11276 4.34296,-3.60207 -0.41688,-0.41689 -2.12696,-0.82697 -3.80018,-0.91129 -2.08017,-0.1048 -3.17693,-1.10199 -3.46826,-3.15331 -0.3609,-2.54113 0.1879,-3 3.58797,-3 2.20773,0 4.42633,-0.66708 4.93023,-1.4824 2.303077,-3.72646 -9.70331,-5.38262 -13.25722,-1.8287 -1.56166,1.56165 -1.91086,4.43696 -1.53325,12.62462 0.26895,5.83132 0.87151,11.22132 1.33901,11.97778 1.12231,1.81593 12.287,1.77709 13.41415,-0.0467 z m -69.74251,-36.24463 c 1.18544,-0.91666 2.66909,-4.36666 3.29701,-7.66666 l 1.14168,-6 h 7.945 7.945 l 1.1632,6.3669 c 1.20682,6.60564 4.22168,9.64027 8.09921,8.15234 1.15312,-0.44251 2.11006,-2.09035 2.12653,-3.66189 0.0461,-4.40541 -12.30223,-59.97246 -13.74628,-61.85735 -1.70801,-2.22946 -8.24444,-2.12378 -10.14312,0.16398 -0.83561,1.00685 -4.62075,15.75243 -8.41141,32.76794 -5.82439,26.14451 -6.59547,31.125 -4.97729,32.14893 2.51805,1.59335 3.0119,1.55656 5.56047,-0.41419 z m 8.17445,-31.19579 c 1.41169,-10.29944 3.62805,-17.28343 4.78573,-15.0804 1.66369,3.16594 4.26938,18.52673 3.38538,19.95709 -0.44839,0.72551 -2.6614,1.31911 -4.9178,1.31911 h -4.10254 z m 41.09825,29.86246 c 1.15208,-0.91667 4.09284,-6.63638 6.53502,-12.71047 3.05559,-7.5997 5.05711,-10.92503 6.41806,-10.66293 1.08774,0.20948 4.0208,5.47919 6.51788,11.71047 5.16057,12.87777 6.749157,14.68013 10.72017,12.16282 1.404253,-0.89018 0.496947,-4.24917 -4.333333,-16.04266 -3.360214,-8.2042 -6.109477,-15.81894 -6.109477,-16.92163 0,-1.1027 2.399997,-7.64371 5.33333,-14.5356 6.169987,-14.4964 6.55188,-17.03361 2.472467,-16.42607 -2.178147,0.32439 -4.01408,3.10628 -7.693227,11.65715 -2.6578,6.17709 -5.47901,11.44662 -6.26937,11.71008 -0.79036,0.26345 -3.38987,-4.19053 -5.77667,-9.89774 -5.05803,-12.09451 -6.18492,-13.71008 -9.56312,-13.71008 -3.59992,0 -3.15931,2.59494 2.82992,16.66666 2.93333,6.89189 5.33333,13.59456 5.33333,14.89483 0,1.30027 -2.73194,8.83646 -6.071,16.74709 -5.51157,13.0576 -6.31281,17.02475 -3.43848,17.02475 0.5499,0 1.94242,-0.75 3.0945,-1.66667 z"
         id="path101"
         inkscape:connector-curvature="0" />
      <path
         style="fill:#bf1222;stroke-width:1.33333337"
         d="m -176.31976,1019.9721 c -11.83857,-2.5426 -28.44219,-11.0321 -37.60447,-19.2272 -10.41473,-9.31546 -20.18392,-24.35036 -24.52656,-37.74673 -2.97112,-9.16544 -3.54859,-13.34596 -3.53887,-25.61934 0.0193,-24.43379 7.76901,-43.08386 24.989,-60.13771 33.01226,-32.69377 85.70075,-32.5726 118.54598,0.27262 9.321467,9.32147 15.686453,19.32436 20.495507,32.20968 4.39024,11.76317 5.6016,35.7136 2.3766,46.98874 -7.012494,24.51682 -6.87072,22.77249 -3.49308,42.97926 1.697813,10.15708 2.81488,18.73948 2.482386,19.07198 -0.332493,0.3325 -7.122706,-0.593 -15.08936,-2.0567 -15.825423,-2.9075 -24.131013,-3.2663 -31.303803,-1.3523 -27.47726,7.332 -36.89775,8.1477 -53.33333,4.6177 z m -28.76191,-22.68852 c 1.56715,-1.56713 2.0901,-4.84374 2.07483,-13 -0.0223,-11.91672 -0.99362,-14.75032 -4.80602,-14.02072 -2.20808,0.42258 -2.55297,1.97591 -2.89335,13.03118 -0.5017,16.29417 0.59419,19.01986 5.62454,13.98954 z m 11.16191,0.49524 c 0.88,-0.88 1.6146,-4.03 1.63243,-7 l 0.0324,-5.4 3.48566,6.26158 c 3.8923,6.99209 6.08008,8.3867 9.92681,6.32802 2.36865,-1.26766 2.58129,-2.62981 2.23674,-14.32854 -0.37696,-12.79915 -0.4139,-12.92772 -3.71408,-12.92772 -2.88315,0 -3.42802,0.72029 -4.03442,5.33333 l -0.70108,5.33333 -3.03321,-5.7461 c -2.72228,-5.15708 -3.47047,-5.70379 -7.29891,-5.33334 l -4.26571,0.41278 -0.38515,12.46762 c -0.44303,14.34142 1.57086,19.14672 6.11848,14.59904 z m 34.48431,-0.36889 c 6.24304,-4.3728 4.66891,-13.13396 -3.04481,-16.94652 -4.35307,-2.15153 -3.75805,-4.55967 0.99369,-4.02163 4.6673,0.52847 5.99715,-2.99682 2.14762,-5.69313 -4.20878,-2.94796 -8.63249,-2.50603 -12.37475,1.23624 -5.15695,5.15695 -3.79425,11.01011 3.43347,14.74771 5.76863,2.98308 5.32209,6.35584 -0.69212,5.22756 -3.60688,-0.67666 -4.83911,-0.38675 -5.4825,1.2899 -2.08228,5.42635 8.87748,8.46184 15.0194,4.15987 z m 11.68712,-0.1264 c 1.56714,-1.56713 2.09009,-4.84375 2.07482,-13 -0.0223,-11.91672 -0.99361,-14.75032 -4.80602,-14.02072 -2.20807,0.42257 -2.55296,1.97591 -2.89335,13.03117 -0.5017,16.29418 0.59419,19.01992 5.62455,13.98955 z m 25.09524,-3.21732 c 5.05172,-5.59748 5.12181,-14.08677 0.16494,-19.97767 -3.30994,-3.93366 -3.94884,-4.14005 -11.66666,-3.76897 l -8.16495,0.39259 -0.38515,12.46762 c -0.47827,15.48236 0.33599,16.80596 9.67414,15.72563 5.23061,-0.60513 7.51985,-1.67261 10.37768,-4.8392 z m -11.49136,-2.28985 c -0.46308,-0.4631 -0.84198,-4.04198 -0.84198,-7.9531 0,-6.24736 0.32738,-7.1111 2.69526,-7.1111 3.36465,0 5.93772,5.29653 4.79156,9.86318 -0.86183,3.43379 -5.09708,6.74878 -6.64484,5.20102 z m 33.04897,6.79314 c 1.159987,-0.44512 2.109053,-1.9089 2.109053,-3.25284 0,-1.86118 -1.191623,-2.54216 -5.000003,-2.85734 -6.30612,-0.52192 -6.71333,-3.80035 -0.66666,-5.36719 5.891143,-1.52656 6.204583,-6.37997 0.41202,-6.37997 -2.15672,0 -4.29476,-0.60424 -4.75118,-1.34275 -0.85703,-1.38672 0.0839,-1.86731 6.33916,-3.23796 2.53102,-0.55459 3.666663,-1.6412 3.666663,-3.50832 0,-2.47145 -0.719186,-2.67063 -8.333333,-2.30793 l -8.33333,0.39696 -0.38431,13.22314 c -0.28135,9.68043 0.0759,13.51511 1.33333,14.31291 2.01947,1.28127 10.58023,1.48339 13.60859,0.32129 z m -36.74469,-39.92628 c 0.75089,-3.81192 -12.07551,-60.98751 -14.26711,-63.59773 -2.43562,-2.90086 -8.65842,-3.03025 -11.45057,-0.23809 -1.15239,1.15238 -2.09524,2.32147 -2.09524,2.59798 0,0.27651 -3.03269,14.33806 -6.73932,31.24787 -3.70662,16.90982 -6.37121,31.34073 -5.92131,32.06868 1.16511,1.88519 8.07847,1.64013 9.67995,-0.34311 0.74021,-0.91666 1.76642,-4.21666 2.28045,-7.33333 l 0.93462,-5.66667 h 7.13444 7.13444 l 0.90485,6.03401 c 1.04182,6.9473 4.60452,10.36733 9.07921,8.71558 1.56529,-0.57779 3.06181,-2.14612 3.32559,-3.48519 z m -23.71045,-28.26439 c 0.0564,-2.01667 0.8504,-6.06667 1.76454,-9 l 1.66207,-5.33334 1.56879,7.06563 c 2.21554,9.97849 2.06128,10.93437 -1.76454,10.93437 -2.77232,0 -3.31609,-0.61712 -3.23086,-3.66666 z m 46.4971,18.33333 c 2.68125,-6.23334 5.63767,-11.33333 6.56979,-11.33333 0.93213,0 3.39638,4.3735 5.47613,9.7189 4.519453,11.61596 6.014427,13.61443 10.184427,13.61443 4.57776,0 4.1276,-3.13312 -2.834654,-19.72931 l -6.004733,-14.31372 6.004733,-14.24971 c 6.69816,-15.89527 6.82296,-16.44131 4.004734,-17.52276 -3.805627,-1.46036 -5.779107,0.7218 -10.438937,11.54283 -2.57401,5.97733 -5.23508,11.05289 -5.91349,11.27903 -0.67841,0.22614 -3.19831,-4.67109 -5.59977,-10.88272 -2.40147,-6.21164 -5.27916,-11.64419 -6.39488,-12.07233 -2.69271,-1.03329 -6.98626,0.40155 -6.98626,2.33468 0,0.8468 2.70359,7.94477 6.00798,15.77328 l 6.00797,14.23364 -6.67693,15.59382 c -3.67231,8.57661 -6.31924,16.17259 -5.88206,16.87996 0.43718,0.70737 2.32624,1.10175 4.19791,0.87639 2.88132,-0.34694 4.1504,-2.14724 8.27804,-11.74308 z"
         id="path99"
         inkscape:connector-curvature="0" />
      <path
         style="fill:#19274a;stroke-width:1.33333337"
         d="m -176.31976,1019.9721 c -11.83857,-2.5426 -28.44219,-11.0321 -37.60447,-19.2272 -10.41473,-9.31546 -20.18392,-24.35036 -24.52656,-37.74673 -2.97112,-9.16544 -3.54859,-13.34596 -3.53887,-25.61934 0.0193,-24.43379 7.76901,-43.08386 24.989,-60.13771 33.01226,-32.69377 85.70075,-32.5726 118.54598,0.27262 9.321467,9.32147 15.686453,19.32436 20.495507,32.20968 4.39024,11.76317 5.6016,35.7136 2.3766,46.98874 -7.012494,24.51682 -6.87072,22.77249 -3.49308,42.97926 1.697813,10.15708 2.81488,18.73948 2.482386,19.07198 -0.332493,0.3325 -7.122706,-0.593 -15.08936,-2.0567 -15.825423,-2.9075 -24.131013,-3.2663 -31.303803,-1.3523 -27.47726,7.332 -36.89775,8.1477 -53.33333,4.6177 z m -28.76191,-22.68852 c 1.56715,-1.56713 2.0901,-4.84374 2.07483,-13 -0.0223,-11.91672 -0.99362,-14.75032 -4.80602,-14.02072 -2.20808,0.42258 -2.55297,1.97591 -2.89335,13.03118 -0.5017,16.29417 0.59419,19.01986 5.62454,13.98954 z m 11.16191,0.49524 c 0.88,-0.88 1.6146,-4.03 1.63243,-7 l 0.0324,-5.4 3.48566,6.26158 c 3.8923,6.99209 6.08008,8.3867 9.92681,6.32802 2.36865,-1.26766 2.58129,-2.62981 2.23674,-14.32854 -0.37696,-12.79915 -0.4139,-12.92772 -3.71408,-12.92772 -2.88315,0 -3.42802,0.72029 -4.03442,5.33333 l -0.70108,5.33333 -3.03321,-5.7461 c -2.72228,-5.15708 -3.47047,-5.70379 -7.29891,-5.33334 l -4.26571,0.41278 -0.38515,12.46762 c -0.44303,14.34142 1.57086,19.14672 6.11848,14.59904 z m 34.48431,-0.36889 c 6.24304,-4.3728 4.66891,-13.13396 -3.04481,-16.94652 -4.35307,-2.15153 -3.75805,-4.55967 0.99369,-4.02163 4.6673,0.52847 5.99715,-2.99682 2.14762,-5.69313 -4.20878,-2.94796 -8.63249,-2.50603 -12.37475,1.23624 -5.15695,5.15695 -3.79425,11.01011 3.43347,14.74771 5.76863,2.98308 5.32209,6.35584 -0.69212,5.22756 -3.60688,-0.67666 -4.83911,-0.38675 -5.4825,1.2899 -2.08228,5.42635 8.87748,8.46184 15.0194,4.15987 z m 11.68712,-0.1264 c 1.56714,-1.56713 2.09009,-4.84375 2.07482,-13 -0.0223,-11.91672 -0.99361,-14.75032 -4.80602,-14.02072 -2.20807,0.42257 -2.55296,1.97591 -2.89335,13.03117 -0.5017,16.29418 0.59419,19.01992 5.62455,13.98955 z m 25.09524,-3.21732 c 5.05172,-5.59748 5.12181,-14.08677 0.16494,-19.97767 -3.30994,-3.93366 -3.94884,-4.14005 -11.66666,-3.76897 l -8.16495,0.39259 -0.38515,12.46762 c -0.47827,15.48236 0.33599,16.80596 9.67414,15.72563 5.23061,-0.60513 7.51985,-1.67261 10.37768,-4.8392 z m -11.49136,-2.28985 c -0.46308,-0.4631 -0.84198,-4.04198 -0.84198,-7.9531 0,-6.24736 0.32738,-7.1111 2.69526,-7.1111 3.36465,0 5.93772,5.29653 4.79156,9.86318 -0.86183,3.43379 -5.09708,6.74878 -6.64484,5.20102 z m 33.04897,6.79314 c 1.159987,-0.44512 2.109053,-1.9089 2.109053,-3.25284 0,-1.86118 -1.191623,-2.54216 -5.000003,-2.85734 -6.30612,-0.52192 -6.71333,-3.80035 -0.66666,-5.36719 5.891143,-1.52656 6.204583,-6.37997 0.41202,-6.37997 -2.15672,0 -4.29476,-0.60424 -4.75118,-1.34275 -0.85703,-1.38672 0.0839,-1.86731 6.33916,-3.23796 2.53102,-0.55459 3.666663,-1.6412 3.666663,-3.50832 0,-2.47145 -0.719186,-2.67063 -8.333333,-2.30793 l -8.33333,0.39696 -0.38431,13.22314 c -0.28135,9.68043 0.0759,13.51511 1.33333,14.31291 2.01947,1.28127 10.58023,1.48339 13.60859,0.32129 z m -36.74469,-39.92628 c 0.75089,-3.81192 -12.07551,-60.98751 -14.26711,-63.59773 -2.43562,-2.90086 -8.65842,-3.03025 -11.45057,-0.23809 -1.15239,1.15238 -2.09524,2.32147 -2.09524,2.59798 0,0.27651 -3.03269,14.33806 -6.73932,31.24787 -3.70662,16.90982 -6.37121,31.34073 -5.92131,32.06868 1.16511,1.88519 8.07847,1.64013 9.67995,-0.34311 0.74021,-0.91666 1.76642,-4.21666 2.28045,-7.33333 l 0.93462,-5.66667 h 7.13444 7.13444 l 0.90485,6.03401 c 1.04182,6.9473 4.60452,10.36733 9.07921,8.71558 1.56529,-0.57779 3.06181,-2.14612 3.32559,-3.48519 z m -23.71045,-28.26439 c 0.0564,-2.01667 0.8504,-6.06667 1.76454,-9 l 1.66207,-5.33334 1.56879,7.06563 c 2.21554,9.97849 2.06128,10.93437 -1.76454,10.93437 -2.77232,0 -3.31609,-0.61712 -3.23086,-3.66666 z m -27.07911,-2.15162 -0.3567,-32.18172 h -5.25114 c -5.1143,0 -5.32743,0.18976 -8.17824,7.28164 -1.6099,4.0049 -3.50895,7.47558 -4.2201,7.71264 -0.71116,0.23705 -2.62498,-3.22204 -4.25294,-7.68686 l -2.95991,-8.11785 -5.56883,0.40522 -5.56884,0.40521 v 32 32 h 3.33334 3.33333 l 0.3641,-23.66666 c 0.20025,-13.01667 0.83392,-23.66667 1.40815,-23.66667 0.57423,0 2.27249,3.45 3.77392,7.66667 3.90359,10.96302 6.78926,10.97776 11.87601,0.0607 l 3.91115,-8.39403 0.35143,23.33334 c 0.29305,19.45757 0.70215,23.59495 2.46293,24.90842 1.16133,0.86629 2.9637,1.24807 4.00527,0.84837 1.57763,-0.60538 1.83422,-6.09891 1.53707,-32.90841 z m 73.57621,20.48495 c 2.68125,-6.23334 5.63767,-11.33333 6.56979,-11.33333 0.93213,0 3.39638,4.3735 5.47613,9.7189 4.519453,11.61596 6.014427,13.61443 10.184427,13.61443 4.57776,0 4.1276,-3.13312 -2.834654,-19.72931 l -6.004733,-14.31372 6.004733,-14.24971 c 6.69816,-15.89527 6.82296,-16.44131 4.004734,-17.52276 -3.805627,-1.46036 -5.779107,0.7218 -10.438937,11.54283 -2.57401,5.97733 -5.23508,11.05289 -5.91349,11.27903 -0.67841,0.22614 -3.19831,-4.67109 -5.59977,-10.88272 -2.40147,-6.21164 -5.27916,-11.64419 -6.39488,-12.07233 -2.69271,-1.03329 -6.98626,0.40155 -6.98626,2.33468 0,0.8468 2.70359,7.94477 6.00798,15.77328 l 6.00797,14.23364 -6.67693,15.59382 c -3.67231,8.57661 -6.31924,16.17259 -5.88206,16.87996 0.43718,0.70737 2.32624,1.10175 4.19791,0.87639 2.88132,-0.34694 4.1504,-2.14724 8.27804,-11.74308 z"
         id="path97"
         inkscape:connector-curvature="0" />
      <path
         style="fill:#181e37;stroke-width:1.33333337"
         d="m -168.31976,1002.1275 c -2.95015,-0.8135 -2.67976,-1.0264 2.35209,-1.8527 3.12698,-0.5134 6.87698,-2.12504 8.33333,-3.5814 2.53904,-2.53904 2.64791,-2.54498 2.64791,-0.1445 0,4.5069 -6.84044,7.3689 -13.33333,5.5786 z m -38.66667,-1.4153 c 0,-0.73338 0.61934,-1.33338 1.3763,-1.33338 0.75697,0 1.91894,-1.35 2.58215,-3 1.17592,-2.92552 1.20795,-2.91252 1.29037,0.52402 0.049,2.0435 -0.80154,3.86406 -2.02453,4.33336 -2.84531,1.0918 -3.22429,1.0302 -3.22429,-0.524 z m 12,0 c 0,-0.73338 0.58285,-1.33338 1.29521,-1.33338 0.71237,0 1.85826,-1.95 2.54642,-4.33333 l 1.2512,-4.33333 0.12026,4.06666 c 0.11421,3.86252 -1.82822,7.26668 -4.14642,7.26668 -0.58667,0 -1.06667,-0.6 -1.06667,-1.3333 z m 15.25484,-0.6275 c 3.13401,-2.46928 5.16542,-2.64054 4.4185,-0.37254 -0.30188,0.91664 -2.00188,1.83434 -3.77777,2.03924 -3.12685,0.3607 -3.1471,0.308 -0.64073,-1.6667 z m 30.0785,0.6275 c 0,-0.73338 0.61933,-1.33338 1.3763,-1.33338 0.75696,0 1.91893,-1.35 2.58215,-3 1.17591,-2.92552 1.20795,-2.91252 1.29037,0.52402 0.049,2.0435 -0.80154,3.86406 -2.02454,4.33336 -2.8453,1.0918 -3.22428,1.0302 -3.22428,-0.524 z m 12,0 c 1.1,-0.7109 3.81649,-1.30174 6.03665,-1.31296 5.18492,-0.0263 9.75657,-3.26114 12.04745,-8.52482 l 1.81152,-4.16226 0.009,4 c 0.0181,7.39017 -5.39504,11.34504 -15.48442,11.31294 -4.63681,-0.015 -5.86494,-0.3795 -4.42054,-1.3129 z m 26.06666,0.1229 c 0.69667,-0.6657 4.36666,-1.41574 8.15554,-1.66668 5.395837,-0.35737 6.588597,-0.0951 5.50341,1.21038 -0.775253,0.9326 -4.36728,1.6667 -8.15553,1.6667 -4.09638,0 -6.26984,-0.478 -5.50342,-1.2104 z m -22.09981,-15.90136 c -0.70089,-7.86804 -0.55219,-8.36249 2.19753,-7.30733 1.26122,0.48399 1.47575,1.24615 0.63567,2.25837 -0.69741,0.84034 -1.47764,3.92026 -1.73384,6.8443 -0.44169,5.04102 -0.49864,4.94802 -1.09936,-1.79534 z m 25.36648,4.58963 c 0,-1.37928 1.15056,-2.14455 3.22428,-2.14455 1.77336,0 4.32336,-0.38518 5.666667,-0.85596 2.185266,-0.76585 2.23184,-0.63472 0.442386,1.24559 -1.100003,1.15587 -3.650003,2.50609 -5.666663,3.00051 -2.85282,0.69942 -3.66667,0.42294 -3.66667,-1.24559 z m -66.40673,-2.81121 c 0.0272,-2.2 0.32599,-2.93859 0.66405,-1.6413 0.33806,1.2973 0.31583,3.0973 -0.0494,4 -0.36523,0.90271 -0.64183,-0.1587 -0.61465,-2.3587 z m 13.74006,-7.04216 c -1.46666,-0.30251 -3.24791,-1.10303 -3.95833,-1.77892 -0.79263,-0.75414 0.41856,-0.88688 3.13496,-0.3436 3.11173,0.62234 4.77652,0.33273 5.60458,-0.975 0.95931,-1.51502 1.18175,-1.4537 1.19838,0.33036 0.0236,2.53374 -2.17601,3.55165 -5.97959,2.76716 z m 52.66667,-1.62451 c 0,-0.73333 1.75093,-1.33333 3.89095,-1.33333 2.14002,0 4.990023,-0.41234 6.33333,-0.91631 2.150013,-0.80661 2.22332,-0.647 0.612467,1.33333 -1.972214,2.42456 -10.836747,3.17411 -10.836747,0.91631 z m -116.17007,-14.20184 c -1.43257,-1.72372 -1.84472,-9.03429 -1.89806,-33.66666 l -0.0681,-31.46483 0.73479,30.66667 0.73479,30.66666 h 3.33334 3.33333 l 0.3641,-23.66666 c 0.20025,-13.01667 0.83392,-23.66667 1.40815,-23.66667 0.57423,0 2.27249,3.45 3.77392,7.66667 3.82804,10.75085 7.04008,11.0535 11.1018,1.04606 1.65744,-4.08366 3.53968,-7.75002 4.18277,-8.14747 0.64309,-0.39745 1.12189,3.36277 1.064,8.35605 -0.0579,4.99328 -0.42193,8.2866 -0.80896,7.31849 -0.51266,-1.28235 -1.22853,-1.01088 -2.63701,1 -2.73251,3.90121 -7.68032,3.49206 -10.96199,-0.90647 l -2.73563,-3.66666 -0.0422,18.23809 c -0.0342,14.76226 -0.44156,18.63741 -2.13748,20.33333 -2.71496,2.71496 -6.43423,2.6696 -8.7415,-0.10653 z m 30.26531,0.10653 c -2.91134,-2.91133 -2.71975,-4.99948 0.30994,-3.37804 5.32053,2.84747 5.66063,0.7487 5.28618,-32.62067 l -0.35803,-31.90598 -4.60781,-0.43828 c -3.23651,-0.30785 -5.12134,0.264 -6.33333,1.92151 -0.94904,1.29788 -1.72552,1.76511 -1.72552,1.03828 0,-4.8796 10.33489,-6.18662 14.66666,-1.85484 2.51728,2.51727 2.66667,4.44444 2.66667,34.4 0,22.9037 -0.44519,32.17852 -1.6,33.33333 -2.2145,2.21449 -5.8094,2.00012 -8.30476,-0.49524 z m 20.57143,0.76198 c 0,-0.73334 0.82653,-1.33334 1.83674,-1.33334 2.8538,0 4.82948,-3.18285 5.91208,-9.52447 0.56032,-3.28225 1.70052,-5.75086 2.62141,-5.67553 0.89637,0.0733 3.72977,0.22334 6.29643,0.33334 6.41679,0.275 5.92004,2.86666 -0.54947,2.86666 -5.05071,0 -5.24485,0.16998 -6.12166,5.35976 -0.49804,2.94787 -1.79363,6.24787 -2.8791,7.33334 -2.23044,2.23044 -7.11643,2.67001 -7.11643,0.64024 z m 29.33333,0 c 0,-0.73334 1.12653,-1.33334 2.50341,-1.33334 3.06294,0 5.04276,-2.25469 5.85392,-6.66666 0.40964,-2.22807 0.67306,-1.50168 0.79443,2.19068 0.12907,3.92709 -0.42813,5.75798 -1.92748,6.33333 -3.25071,1.24741 -7.22428,0.9592 -7.22428,-0.52401 z m 19.60893,0.49781 c -0.45953,-0.45953 1.00168,-2.10953 3.24714,-3.66667 2.79257,-1.93653 5.34416,-5.8857 8.07489,-12.49781 3.89985,-9.44296 6.40237,-12.22766 6.40237,-7.12429 0,3.67274 -7.72452,20.49246 -10.31374,22.45762 -2.35056,1.78403 -6.04359,2.19822 -7.41066,0.83115 z m 29.12479,-0.38932 c -0.416347,-0.67365 1.044667,-1.62055 3.246707,-2.1042 2.202026,-0.48364 4.524226,-1.80952 5.160453,-2.94637 1.767053,-3.15756 3.2732,0.34368 1.540533,3.58118 -1.500066,2.8029 -8.485813,3.83478 -9.947693,1.46939 z m -41.96179,-15.55294 c 0.064,-1.55325 0.37992,-1.8692 0.80555,-0.80555 0.38516,0.9625 0.3378,2.1125 -0.1052,2.55555 -0.44307,0.44306 -0.75819,-0.34444 -0.70029,-1.75 z m -2.66666,-12 c 0.064,-1.55325 0.37992,-1.8692 0.80554,-0.80555 0.38516,0.9625 0.3378,2.1125 -0.1052,2.55555 -0.44306,0.44306 -0.75818,-0.34444 -0.70029,-1.75 z m -20.53731,-8.88888 c 0.45905,-2.38334 1.30602,-5.53334 1.88215,-7 0.81242,-2.06816 1.0665,-1.56894 1.13204,2.22428 0.0952,5.50751 -0.96898,9.10905 -2.69147,9.10905 -0.63654,0 -0.78176,-1.95 -0.32272,-4.33333 z m 62.33848,-0.12807 c -1.058253,-2.7227 7.935147,-26.52732 10.975253,-29.05039 3.359574,-2.78819 1.96312,3.16455 -4.116786,17.5489 -4.414947,10.44525 -6.142787,13.3428 -6.858467,11.50149 z m -47.13451,-14.98305 c 0.064,-1.55325 0.37992,-1.8692 0.80556,-0.80555 0.38516,0.9625 0.33779,2.1125 -0.10527,2.55555 -0.44306,0.44306 -0.75819,-0.34444 -0.70029,-1.75 z m -64.50556,-7.55555 c -1.09137,-3.11667 -2.46011,-6.86667 -3.04164,-8.33333 -0.91496,-2.30758 -0.77372,-2.43628 1.04885,-0.9558 1.1584,0.94098 2.88668,3.64098 3.84061,6 0.95392,2.35902 2.29535,4.67205 2.98093,5.14006 1.37296,0.93724 0.0791,3.81574 -1.71514,3.81574 -0.62112,0 -2.02224,-2.55 -3.11361,-5.66667 z m -14.40117,-10.73187 c 0.62098,-0.62097 3.15534,-0.92039 5.63192,-0.66537 4.39203,0.45225 4.36424,0.48005 -1.12904,1.12904 -3.09756,0.36596 -5.12385,0.1573 -4.50288,-0.46367 z"
         id="path95"
         inkscape:connector-curvature="0" />
    </g>
  </g>
</svg>
