<?xml version="1.0" encoding="UTF-8" standalone="no"?>
<svg
   xmlns:dc="http://purl.org/dc/elements/1.1/"
   xmlns:cc="http://creativecommons.org/ns#"
   xmlns:rdf="http://www.w3.org/1999/02/22-rdf-syntax-ns#"
   xmlns:svg="http://www.w3.org/2000/svg"
   xmlns="http://www.w3.org/2000/svg"
   xmlns:sodipodi="http://sodipodi.sourceforge.net/DTD/sodipodi-0.dtd"
   xmlns:inkscape="http://www.inkscape.org/namespaces/inkscape"
   version="1.1"
   id="svg4165"
   viewBox="0 0 146.1988 47.999997"
   height="48"
   width="146.19881"
   inkscape:version="0.92.3 (2405546, 2018-03-11)"
   sodipodi:docname="um-text-max.svg">
  <sodipodi:namedview
     pagecolor="#ffffff"
     bordercolor="#666666"
     borderopacity="1"
     objecttolerance="10"
     gridtolerance="10"
     guidetolerance="10"
     inkscape:pageopacity="0"
     inkscape:pageshadow="2"
     inkscape:window-width="1366"
     inkscape:window-height="695"
     id="namedview11"
     showgrid="false"
     units="px"
     inkscape:zoom="3.433994"
     inkscape:cx="56.312502"
     inkscape:cy="40.329219"
     inkscape:window-x="0"
     inkscape:window-y="39"
     inkscape:window-maximized="0"
     inkscape:current-layer="svg4165" />
  <defs
     id="defs4167" />
  <metadata
     id="metadata4170">
    <rdf:RDF>
      <cc:Work
         rdf:about="">
        <dc:format>image/svg+xml</dc:format>
        <dc:type
           rdf:resource="http://purl.org/dc/dcmitype/StillImage" />
        <dc:title></dc:title>
      </cc:Work>
    </rdf:RDF>
  </metadata>
  <g
     id="g4687"
     transform="matrix(0.84488405,0,0,0.84488405,-5.3855295,-185.32114)">
    <path
       inkscape:connector-curvature="0"
       id="rect4666"
       d="m 94.985003,221.57039 c -3.65064,0 -3.86205,0.0401 -4.18734,0.79375 -0.58387,1.35273 -11.284067,49.97104 -11.284067,51.27129 0,0.93673 0.187751,1.30745 0.79375,1.56632 0.837232,0.35766 4.485965,0.14372 4.918046,-0.28836 0.139451,-0.13945 0.737235,-2.55473 1.328084,-5.36711 0.590862,-2.81238 1.156668,-5.47058 1.257289,-5.90714 0.181938,-0.78943 0.219887,-0.79375 6.995438,-0.79375 h 6.812497 l 1.15859,5.55625 c 0.6371,3.05594 1.29932,5.82434 1.47174,6.15208 0.40322,0.76643 3.07784,1.17783 5.01365,0.77102 1.11797,-0.23494 1.49778,-0.49215 1.58027,-1.07074 0.0597,-0.41884 -1.32174,-7.16576 -3.06958,-14.99288 -1.74784,-7.82713 -4.31246,-19.311 -5.6994,-25.51989 -1.38693,-6.20889 -2.684367,-11.4875 -2.883027,-11.73003 -0.24877,-0.30371 -1.55783,-0.44081 -4.20594,-0.44081 z m -0.3173,9.87847 c 0.1054,3.1e-4 1.28189,4.93578 2.61432,10.96781 1.33241,6.03204 2.50189,11.27058 2.5988,11.64115 0.167707,0.64132 -0.0819,0.67334 -5.18056,0.67334 -4.9373,0 -5.341948,-0.048 -5.170228,-0.61702 0.192928,-0.63929 2.841808,-12.70503 4.182178,-19.05 0.42013,-1.98878 0.85011,-3.61559 0.95549,-3.61528 z"
       style="fill:#bbbbbb;fill-opacity:1;stroke:#000000;stroke-width:0.30000001;stroke-miterlimit:4;stroke-dasharray:none;stroke-opacity:1" />
    <path
       sodipodi:nodetypes="ccccccccccccccccccccccccc"
       inkscape:connector-curvature="0"
       id="path4671-3"
       d="m 121.44978,274.81313 c -1.92698,-3.26012 1.61629,-6.84703 2.55784,-10.09816 0.83562,-2.83729 2.20946,-5.33116 3.33716,-8.08707 1.28537,-2.64725 2.42166,-5.9298 3.56212,-8.27403 0.21949,-3.76799 -2.63024,-7.3474 -3.7844,-10.99895 -1.40397,-4.03865 -3.51557,-7.82374 -4.8331,-11.66374 -2.55577,-2.90104 0.35511,-6.12416 4.01824,-4.6791 3.12836,0.82406 3.51463,5.12425 4.68258,7.67994 1.55939,3.05509 2.85894,6.68072 4.20552,10.00054 1.75063,4.02574 1.65549,3.83012 3.41372,-0.56925 1.49574,-3.22247 2.93162,-6.72088 4.42912,-10.04705 0.95856,-3.71345 3.10421,-8.94853 8.03739,-6.7207 2.38323,2.0519 -1.21337,6.42378 -1.97948,8.83962 -1.25324,3.28387 -2.67345,6.34064 -4.06242,9.61384 -1.76021,3.81404 -3.97115,6.73851 -3.63995,7.90256 1.17444,3.58306 3.0156,6.96275 4.22767,10.6117 1.71547,2.67229 5.03047,10.33849 6.62342,13.49031 2.14889,4.19925 -5.7307,4.16193 -6.95352,1.94028 -0.83033,-2.49238 -2.23946,-5.45996 -3.31669,-8.11169 -1.75341,-3.98986 -3.20115,-7.89309 -5.52908,-11.94387 -1.91201,3.60026 -2.91523,6.04003 -4.20998,8.84485 -1.22264,2.13389 -2.28823,4.69833 -3.01615,6.97738 -1.23092,3.19392 -2.2933,6.8553 -6.79464,5.44395 l -0.97531,-0.15131 z"
       style="fill:#4464ad;fill-opacity:1;stroke:#000000;stroke-width:0.30000001;stroke-miterlimit:4;stroke-dasharray:none;stroke-opacity:1" />
    <path
       sodipodi:nodetypes="ccccccccccccccccc"
       inkscape:connector-curvature="0"
       id="path4671-6"
       d="m 39.910791,275.37255 c -1.686416,-0.57086 -0.553033,-2.83834 -0.881944,-4.22598 0.07568,-15.18642 -0.18036,-30.3782 0.153473,-45.56023 -0.292254,-6.0588 5.492668,-5.15534 8.921349,-3.63007 2.287278,3.23364 2.889562,7.42807 4.531647,11.03475 0.576601,2.81601 2.290291,4.84338 3.07762,0.93602 2.018141,-4.04002 2.46197,-9.16363 5.556474,-12.48535 3.606997,-0.96187 8.067805,-1.1685 8.107239,4.22803 0.358304,16.45397 0.08608,32.91897 0.167479,49.37789 -3.02446,1.59438 -7.593633,0.50551 -6.20704,-3.7681 -0.365052,-12.73352 0.167762,-25.48962 -0.443821,-38.21205 -2.09405,2.92211 -3.423227,8.15707 -5.139836,11.99072 -1.597767,4.69585 -5.349489,4.8458 -7.085258,0.39775 -1.739585,-4.17602 -2.962519,-8.5828 -5.045615,-12.60571 -0.751299,7.6632 -0.262794,15.48345 -0.420662,23.20744 -0.181978,6.32509 0.370838,12.76141 -0.491254,19.01367 -1.410081,0.74463 -3.301262,0.80623 -4.799851,0.30122 z"
       style="fill:#e31321;fill-opacity:1;stroke:#000000;stroke-width:0.30000001;stroke-miterlimit:4;stroke-dasharray:none;stroke-opacity:1" />
  </g>
</svg>
